HIERARCHY
ROOT hips
{
  OFFSET 0 10.680822821525009 1.3929502295107734
  CHANNELS 6 Xposition Yposition Zposition Yrotation Xrotation Zrotation
  JOINT spine
  {
    OFFSET -7.042017322922631e-31 0.6058489940359625 0
    CHANNELS 3 Yrotation Xrotation Zrotation
    JOINT chest
    {
      OFFSET 0 1.2699794144455032 0
      CHANNELS 3 Yrotation Xrotation Zrotation
      JOINT upperChest
      {
        OFFSET 0 1.217799211677689 0
        CHANNELS 3 Yrotation Xrotation Zrotation
        JOINT neck
        {
          OFFSET 0 1.5248826104153006 0
          CHANNELS 3 Yrotation Xrotation Zrotation
          JOINT head
          {
            OFFSET 0 0.8197772727844447 0
            CHANNELS 3 Yrotation Xrotation Zrotation
            JOINT leftEye
            {
              OFFSET 0.2793952361220866 0.6769952096623495 0.1830357412467788
              CHANNELS 3 Yrotation Xrotation Zrotation
              End Site
              {
                OFFSET 0.2793952361220866 0.6769952096623495 0.1830357412467788
              }
            }
            JOINT rightEye
            {
              OFFSET -0.27939522230689573 0.676995205357064 0.18303631459760622
              CHANNELS 3 Yrotation Xrotation Zrotation
              End Site
              {
                OFFSET -0.27939522230689573 0.676995205357064 0.18303631459760622
              }
            }
          }
        }
        JOINT leftShoulder
        {
          OFFSET 0.41486978509200423 1.1670505408695453 0
          CHANNELS 3 Yrotation Xrotation Zrotation
          JOINT leftUpperArm
          {
            OFFSET 0.9737926108153417 0 0
            CHANNELS 3 Yrotation Xrotation Zrotation
            JOINT leftLowerArm
            {
              OFFSET 2.5269332222665284 0 0
              CHANNELS 3 Yrotation Xrotation Zrotation
              JOINT leftHand
              {
                OFFSET 2.4263782738425914 0 0
                CHANNELS 3 Yrotation Xrotation Zrotation
                JOINT leftIndexProximal
                {
                  OFFSET 0.724320348022514 0.08170607082582437 0.20360061616140124
                  CHANNELS 3 Yrotation Xrotation Zrotation
                  JOINT leftIndexIntermediate
                  {
                    OFFSET 0.36548960630744587 -0.010566596513783999 -0.01414783573280308
                    CHANNELS 3 Yrotation Xrotation Zrotation
                    JOINT leftIndexDistal
                    {
                      OFFSET 0.22502819650693362 -0.007863819831430696 -0.007567681939621526
                      CHANNELS 3 Yrotation Xrotation Zrotation
                      End Site
                      {
                        OFFSET 0.22502819650693362 -0.007863819831430696 -0.007567681939621526
                      }
                    }
                  }
                }
                JOINT leftLittleProximal
                {
                  OFFSET 0.6720322998298205 0.08170601055037707 -0.3230036039466837
                  CHANNELS 3 Yrotation Xrotation Zrotation
                  JOINT leftLittleIntermediate
                  {
                    OFFSET 0.34583592281688713 5.476543019078406e-8 1.3869203337180114e-7
                    CHANNELS 3 Yrotation Xrotation Zrotation
                    JOINT leftLittleDistal
                    {
                      OFFSET 0.19925728062053938 0.003098047439490381 0.0038303983709246925
                      CHANNELS 3 Yrotation Xrotation Zrotation
                      End Site
                      {
                        OFFSET 0.19925728062053938 0.003098047439490381 0.0038303983709246925
                      }
                    }
                  }
                }
                JOINT leftMiddleProximal
                {
                  OFFSET 0.7300436596551069 0.0817073395107144 0.022661722987926763
                  CHANNELS 3 Yrotation Xrotation Zrotation
                  JOINT leftMiddleIntermediate
                  {
                    OFFSET 0.40758254347686607 -0.0000012383587111308714 2.408460318820138e-7
                    CHANNELS 3 Yrotation Xrotation Zrotation
                    JOINT leftMiddleDistal
                    {
                      OFFSET 0.2514490105498507 0.0000013869132886590307 9.738618134136345e-8
                      CHANNELS 3 Yrotation Xrotation Zrotation
                      End Site
                      {
                        OFFSET 0.2514490105498507 0.0000013869132886590307 9.738618134136345e-8
                      }
                    }
                  }
                }
                JOINT leftRingProximal
                {
                  OFFSET 0.7217261161191838 0.08170601902187746 -0.15043395722184966
                  CHANNELS 3 Yrotation Xrotation Zrotation
                  JOINT leftRingIntermediate
                  {
                    OFFSET 0.37808807487521556 0.0000013754022405443322 2.2046919317952884e-7
                    CHANNELS 3 Yrotation Xrotation Zrotation
                    JOINT leftRingDistal
                    {
                      OFFSET 0.21812105442344254 -0.002713483731960231 -0.004991354517454624
                      CHANNELS 3 Yrotation Xrotation Zrotation
                      End Site
                      {
                        OFFSET 0.21812105442344254 -0.002713483731960231 -0.004991354517454624
                      }
                    }
                  }
                }
                JOINT leftThumbProximal
                {
                  OFFSET 0.10793587079521427 -0.1652791240518252 -0.07775251827190094
                  CHANNELS 3 Yrotation Xrotation Zrotation
                  JOINT leftThumbIntermediate
                  {
                    OFFSET 0.40355819082296684 -0.017484006740276614 0.3177776014416309
                    CHANNELS 3 Yrotation Xrotation Zrotation
                    JOINT leftThumbDistal
                    {
                      OFFSET 0.2318764658022603 -0.018510186824293617 0.21396001800186287
                      CHANNELS 3 Yrotation Xrotation Zrotation
                      End Site
                      {
                        OFFSET 0.2318764658022603 -0.018510186824293617 0.21396001800186287
                      }
                    }
                  }
                }
              }
            }
          }
        }
        JOINT rightShoulder
        {
          OFFSET -0.4148697850920044 1.1670505408695453 0
          CHANNELS 3 Yrotation Xrotation Zrotation
          JOINT rightUpperArm
          {
            OFFSET -0.9737926108153414 0 0
            CHANNELS 3 Yrotation Xrotation Zrotation
            JOINT rightLowerArm
            {
              OFFSET -2.5269332222665293 0 0
              CHANNELS 3 Yrotation Xrotation Zrotation
              JOINT rightHand
              {
                OFFSET -2.42637827384259 0 0
                CHANNELS 3 Yrotation Xrotation Zrotation
                JOINT rightIndexProximal
                {
                  OFFSET -0.724320348022514 0.08170607082582437 0.20360061616140124
                  CHANNELS 3 Yrotation Xrotation Zrotation
                  JOINT rightIndexIntermediate
                  {
                    OFFSET -0.36548960630744587 -0.010566596513783999 -0.01414783573280308
                    CHANNELS 3 Yrotation Xrotation Zrotation
                    JOINT rightIndexDistal
                    {
                      OFFSET -0.22502819650693362 -0.007863819831430696 -0.007567681939621526
                      CHANNELS 3 Yrotation Xrotation Zrotation
                      End Site
                      {
                        OFFSET -0.22502819650693362 -0.007863819831430696 -0.007567681939621526
                      }
                    }
                  }
                }
                JOINT rightLittleProximal
                {
                  OFFSET -0.6720322998298205 0.08170601055037707 -0.3230036039466837
                  CHANNELS 3 Yrotation Xrotation Zrotation
                  JOINT rightLittleIntermediate
                  {
                    OFFSET -0.34583592281688713 5.476543019078406e-8 1.3869203337180114e-7
                    CHANNELS 3 Yrotation Xrotation Zrotation
                    JOINT rightLittleDistal
                    {
                      OFFSET -0.19925728062053938 0.003098047439490381 0.0038303983709246925
                      CHANNELS 3 Yrotation Xrotation Zrotation
                      End Site
                      {
                        OFFSET -0.19925728062053938 0.003098047439490381 0.0038303983709246925
                      }
                    }
                  }
                }
                JOINT rightMiddleProximal
                {
                  OFFSET -0.7300436596551069 0.0817073395107144 0.022661722987926763
                  CHANNELS 3 Yrotation Xrotation Zrotation
                  JOINT rightMiddleIntermediate
                  {
                    OFFSET -0.40758254347686607 -0.0000012383587111308714 2.408460318820138e-7
                    CHANNELS 3 Yrotation Xrotation Zrotation
                    JOINT rightMiddleDistal
                    {
                      OFFSET -0.2514490105498507 0.0000013869132886590307 9.738618134136345e-8
                      CHANNELS 3 Yrotation Xrotation Zrotation
                      End Site
                      {
                        OFFSET -0.2514490105498507 0.0000013869132886590307 9.738618134136345e-8
                      }
                    }
                  }
                }
                JOINT rightRingProximal
                {
                  OFFSET -0.7217261161191838 0.08170601902187746 -0.15043395722184966
                  CHANNELS 3 Yrotation Xrotation Zrotation
                  JOINT rightRingIntermediate
                  {
                    OFFSET -0.37808807487521556 0.0000013754022405443322 2.2046919317952884e-7
                    CHANNELS 3 Yrotation Xrotation Zrotation
                    JOINT rightRingDistal
                    {
                      OFFSET -0.21812105442344254 -0.002713483731960231 -0.004991354517454624
                      CHANNELS 3 Yrotation Xrotation Zrotation
                      End Site
                      {
                        OFFSET -0.21812105442344254 -0.002713483731960231 -0.004991354517454624
                      }
                    }
                  }
                }
                JOINT rightThumbProximal
                {
                  OFFSET -0.10793587079521427 -0.1652791240518252 -0.07775251827190094
                  CHANNELS 3 Yrotation Xrotation Zrotation
                  JOINT rightThumbIntermediate
                  {
                    OFFSET -0.40355819082296684 -0.017484006740276614 0.3177776014416309
                    CHANNELS 3 Yrotation Xrotation Zrotation
                    JOINT rightThumbDistal
                    {
                      OFFSET -0.2318764658022603 -0.018510186824293617 0.21396001800186287
                      CHANNELS 3 Yrotation Xrotation Zrotation
                      End Site
                      {
                        OFFSET -0.2318764658022603 -0.018510186824293617 0.21396001800186287
                      }
                    }
                  }
                }
              }
            }
          }
        }
      }
    }
  }
  JOINT leftUpperLeg
  {
    OFFSET 0.8486251390888677 -0.4421577294694363 0
    CHANNELS 3 Yrotation Xrotation Zrotation
    JOINT leftLowerLeg
    {
      OFFSET 0 -4.10147812638609 0
      CHANNELS 3 Yrotation Xrotation Zrotation
      JOINT leftFoot
      {
        OFFSET -0.0002543926476658853 -4.77292286812444 0.007402811231737388
        CHANNELS 3 Yrotation Xrotation Zrotation
        JOINT leftToes
        {
          OFFSET 0 -0.7027875951174846 1.2062924140498823
          CHANNELS 3 Yrotation Xrotation Zrotation
          End Site
          {
            OFFSET 0 -0.7027875951174846 1.2062924140498823
          }
        }
      }
    }
  }
  JOINT rightUpperLeg
  {
    OFFSET -0.8486251390888677 -0.4421577294694363 0
    CHANNELS 3 Yrotation Xrotation Zrotation
    JOINT rightLowerLeg
    {
      OFFSET 0 -4.10147812638609 0
      CHANNELS 3 Yrotation Xrotation Zrotation
      JOINT rightFoot
      {
        OFFSET 0.0002543926476658853 -4.77292286812444 0.007402811231737388
        CHANNELS 3 Yrotation Xrotation Zrotation
        JOINT rightToes
        {
          OFFSET 0 -0.7027875951174846 1.2062924140498823
          CHANNELS 3 Yrotation Xrotation Zrotation
          End Site
          {
            OFFSET 0 -0.7027875951174846 1.2062924140498823
          }
        }
      }
    }
  }
}
MOTION
Frames: 4
Frame Time: 0.03333333333333333
-0.005046202801167965 -4.749332877067001 0.3410327136516571 1.71734767831737 -10.672561419398624 4.71634222973828 3.871171301372047 15.794415365562388 -0.08749392895241523 1.367715167240546 11.25020466517306 3.907907795933888 0 0 0 -1.3047773887447507 -0.32939721215930334 -0.49719924281941635 -7.25947775598149 -9.718380471469386 1.13697510453885 0 0 0 0 0 0 -3.809321362585517 0.6204682189239521 -0.32047657979771976 -41.11602865879199 -16.088857512912693 -49.753154962474824 -71.97101907315553 -6.055807763085313 5.468558736894612 11.464171559898515 -30.975388890325416 10.206848318085887 -14.053540093613162 -2.209790419333608 -2.5091405603203656 4.083845651135005 1.5454043373086543 -41.44329095094019 4.080286788726243 1.5423207749235817 -41.39946664454027 7.267934310554123 7.651760958379804 -67.63475150417852 1.6437157011592671 3.917697300104995 -68.7046921994564 5.735435037935977 3.8882626348035796 -68.24687744427658 4.436206971636132 1.8820162581899813 -45.9619902230409 4.438605041531631 1.884499519485156 -45.99393039595802 4.437415161233912 1.8832386681066537 -45.97794936534996 5.219078975786129 2.8773857626803467 -57.716387745819866 5.219062375292608 2.8774361989141695 -57.71638591947914 5.219053862218667 2.877410553371269 -57.71634133612183 -5.155452982424076 6.653166983119693 -16.19248164445498 20.96524387438899 7.237598605133689 11.369628381003645 31.14610571548149 4.681028594252307 7.240434142605323 7.165559835060459 1.044309648196906 -5.541992201989736 22.27202315131814 -13.737039854681475 66.72624297428781 79.19134721690507 -6.1813725333792355 -6.3313469697047555 -12.004741161305065 -26.388368209096196 -15.273624643518696 13.810633236873107 -0.9896026329963371 -2.0301951152507898 -4.50850357047305 1.9272526210519032 46.27282775322763 -4.5009014247865 1.9192933147936755 46.17172460818483 -5.832304727140374 4.017304178152285 69.09424703104025 -5.832284292431089 4.0173097413501315 69.09389923029619 -5.8323085586482 4.017279785669872 69.0938744001521 -5.606093457206803 3.4982132323110258 63.90357251383297 -5.606089717862858 3.4982132323110258 63.903217523536874 -5.605992855167473 3.498222427511168 63.90318538567335 -5.6423945508676745 3.5734520425751968 64.66911139735896 -5.6424000842670905 3.573457816774014 64.66873030467606 -5.642285427482975 3.573475780948344 64.66872411918888 5.959248439171461 -10.751735303684208 9.185628018138795 -27.98429137560892 19.751397835918848 -1.3256380466562028 -26.67803957623059 8.539982337778834 2.896923402175078 18.655575333087512 -78.48622850988889 2.0411287695822984 148.17033364102247 80.42486172110175 140.81598426920576 8.247876799075971 -8.558163111607103 4.3109057141000156 0.000002664126853550105 -5.731133462084797 -0.00000689072628369511 -14.851590981961587 -83.6971796144642 -4.531449202215012 -128.32216692138877 83.58084862499275 -126.10777693995581 -0.2556357054415192 -2.343571817308665 -9.339919712756986 0.000022771845565879108 -7.83205657455356 5.639672896896959e-7
-0.004948421381413937 -4.750826331046493 0.3407661020755768 1.6161173663156951 -10.78855834070705 4.664689040599439 3.777487134752029 15.564150981959886 -0.35878182645930323 1.3587621849389482 11.432197107330504 3.9764093141634853 0 0 0 -1.2932327538466533 -0.3074099866500362 -0.4176287887539883 -7.138638471222309 -9.741768803740916 1.1526275499885743 0 0 0 0 0 0 -4.094162797199984 0.6420830242775134 -0.34634782554607535 -40.89185407348065 -15.991678079966327 -49.59121652132778 -71.73794692336548 -6.0498935720207285 5.441023270074613 12.18779352553213 -31.403588479351086 9.020818504139953 -14.048928168096364 -2.2175463376205773 -2.5402291402754793 4.09487560449118 1.5551683583352272 -41.57995820473446 4.087086941800018 1.5483052366326218 -41.483640063055994 7.267934310554123 7.651760958379804 -67.63475150417852 1.6437157011592671 3.917697300104995 -68.7046921994564 5.735435037935977 3.8882626348035796 -68.24687744427658 4.436206971636132 1.8820162581899813 -45.9619902230409 4.438605041531631 1.884499519485156 -45.99393039595802 4.437415161233912 1.8832386681066537 -45.97794936534996 5.219078975786129 2.8773857626803467 -57.716387745819866 5.219062375292608 2.8774361989141695 -57.71638591947914 5.219053862218667 2.877410553371269 -57.71634133612183 -5.155452982424076 6.653166983119693 -16.19248164445498 21.63876978584068 7.228943322703248 10.418760640817025 31.14610571548149 4.681028594252307 7.240434142605323 7.107539581673806 1.0288079180498961 -5.268913534410504 22.677501370434154 -13.504940594119816 66.39327472211448 79.56138351198294 -6.184873735966532 -6.375902017537512 -13.112000739821765 -26.727039695941695 -15.8301524171145 13.789704602959882 -1.0281983321773858 -1.8729860555503792 -4.49888923893956 1.917229654628056 46.145308830387876 -4.501982840684476 1.9204198611589505 46.186128929508214 -5.832328178460196 4.017488191639613 69.09199742985956 -5.832284292431089 4.0173097413501315 69.09389923029619 -5.8323085586482 4.017279785669872 69.0938744001521 -5.606165692950151 3.4984822454129536 63.90131257750235 -5.606089717862858 3.4982132323110258 63.903217523536874 -5.605504376605021 3.498410608371113 63.90330026650052 -5.642476927325759 3.573728776440854 64.66684339717423 -5.6424000842670905 3.573457816774014 64.66873030467606 -5.641814367298087 3.573648793073888 64.66881469615923 5.95893770228458 -10.751682292878309 9.184754850667737 -27.75091880586801 19.45930626888903 -1.373444827083604 -26.67803957623059 8.539982337778834 2.896923402175078 18.577027580931272 -78.40566464441602 2.32864164172379 148.3992443668303 80.38417339466798 141.04815970627448 8.158777918467118 -8.608965620213795 4.383074340411402 -0.000031617369919737134 -5.726392685281313 0.0000021239871919704805 -15.299577020358317 -83.56711747594309 -4.042541689134305 -128.6302315233099 83.61192790475063 -126.37987806322208 -0.26707709198036933 -2.350271662896161 -9.401411348780819 0.0000017984923835034328 -7.86734068924956 -0.0000017442552425197731
-0.004408435430377722 -4.752532454398544 0.3400716781616211 1.5696802353665973 -10.858710156834427 4.6339020599700005 3.739377889821631 15.42641700586121 -0.4612741570684169 1.3545299966543893 11.509799634147285 3.995373083883772 0 0 0 -1.2925324481015257 -0.31167259382776774 -0.3969051283861928 -7.086938294996269 -9.74306906982615 1.118669158862753 0 0 0 0 0 0 -4.18777191786684 0.6476309833722085 -0.410073796662243 -40.78516247681705 -15.92330805201601 -49.52454695205032 -71.70404939720916 -6.049108852977106 5.437018593580633 12.546068954542372 -31.575537660101077 8.48236180335215 -14.047693118841648 -2.2196127381255244 -2.548406876112995 4.098215018567168 1.5581632208892793 -41.62139811940937 4.089319814556528 1.5502758262556364 -41.51119836322385 7.267934310554123 7.651760958379804 -67.63475150417852 1.6437157011592671 3.917697300104995 -68.7046921994564 5.735435037935977 3.8882626348035796 -68.24687744427658 4.436206971636132 1.8820162581899813 -45.9619902230409 4.438605041531631 1.884499519485156 -45.99393039595802 4.437415161233912 1.8832386681066537 -45.97794936534996 5.219078975786129 2.8773857626803467 -57.716387745819866 5.219062375292608 2.8774361989141695 -57.71638591947914 5.219053862218667 2.877410553371269 -57.71634133612183 -5.155452982424076 6.653166983119693 -16.19248164445498 22.330288231728947 7.195272174941452 9.813012613411388 31.14610571548149 4.681028594252307 7.240434142605323 7.082685316453968 1.0214897998254928 -5.129221150389941 22.852706018146275 -13.369146231483565 66.21001350789687 79.83123104070678 -6.187252969645117 -6.408456241693871 -13.687262347604719 -26.8379613778886 -16.071836111167254 13.771923871393978 -1.060961578139975 -1.7392835556215684 -4.514466816434765 1.933494260335367 46.351805206572834 -4.515070025805948 1.9341242772081828 46.35982015542651 -5.832298803558763 4.017535692802384 69.0907640467119 -5.832284292431089 4.0173097413501315 69.09389923029619 -5.8323085586482 4.017279785669872 69.0938744001521 -5.606172654616225 3.4986225257256716 63.90005023224486 -5.606089717862858 3.4982132323110258 63.903217523536874 -5.605250393290244 3.498483528464499 63.90337068757346 -5.642498031201115 3.57383121504135 64.66561743827586 -5.6424000842670905 3.573457816774014 64.66873030467606 -5.641531847812526 3.5737480237761914 64.66889908767085 5.958781035197939 -10.751607556348109 9.18397771574415 -27.634634403276696 19.232002282214772 -1.5870447789189013 -26.67803957623059 8.539982337778834 2.896923402175078 18.45516458523509 -78.37076366068239 2.533354680613668 148.4635875577503 80.34605764244446 141.11484928298904 8.11820492003121 -8.62811082448027 4.411056673244423 0.000022035699020625683 -5.721079629768033 -0.0000019997121966288833 -15.628766956007208 -83.50197224164151 -3.712594806117288 -128.84842448267355 83.62769338049269 -126.58137073063706 -0.26570404848279067 -2.3483411521709603 -9.444366374263454 0.0000069814031522982845 -7.886238833154569 -0.000005253622118785805
-0.0023469587322324514 -4.756313773063095 0.3376712203025818 1.5004971311425734 -11.022432734833817 4.568381367717612 3.684280294073528 15.181066038313471 -0.5987172505918935 1.3475918130498958 11.624451494067882 4.015569479667487 0 0 0 -1.2986744728058945 -0.348604093743538 -0.40057791102345813 -6.9936635865268935 -9.686085603981908 0.9587834467365359 0 0 0 0 0 0 -4.248054293855812 0.6479606677928375 -0.5661834203750462 -40.70934926804712 -15.827848801031555 -49.41729434744594 -71.73149440786436 -6.049795267439181 5.440239399122683 12.974902172539919 -31.629901569983375 7.864368618256094 -14.049183466886603 -2.217115926880086 -2.538456507800623 4.095952919952834 1.5561014499481447 -41.59325949198045 4.088435829106295 1.5494450140023108 -41.4998805545503 7.267934310554123 7.651760958379804 -67.63475150417852 1.6437157011592671 3.917697300104995 -68.7046921994564 5.735435037935977 3.8882626348035796 -68.24687744427658 4.436206971636132 1.8820162581899813 -45.9619902230409 4.438605041531631 1.884499519485156 -45.99393039595802 4.437415161233912 1.8832386681066537 -45.97794936534996 5.219078975786129 2.8773857626803467 -57.716387745819866 5.219062375292608 2.8774361989141695 -57.71638591947914 5.219053862218667 2.877410553371269 -57.71634133612183 -5.155452982424076 6.653166983119693 -16.19248164445498 23.870460144664484 7.140052712698454 8.621896302149922 31.14610571548149 4.681028594252307 7.240434142605323 7.043807846544997 1.0076741097952924 -4.855041649997913 23.02741754768771 -13.129670922055864 65.86454711883505 80.31659121687005 -6.191184890397204 -6.466941610313345 -14.354940088459742 -26.994491654204296 -16.406910448290724 13.729131290741922 -1.1394350745278377 -1.41833426873417 -4.573623260983921 1.996316435193516 47.1429702412374 -4.559937985043061 1.9816134922896502 46.9588792798652 -5.832314477482543 4.017577630768211 69.08948382425916 -5.832284292431089 4.0173097413501315 69.09389923029619 -5.8323085586482 4.017279785669872 69.0938744001521 -5.606215795538965 3.4987061379342457 63.898757285135446 -5.606089717862858 3.4982132323110258 63.903217523536874 -5.604973425426803 3.4985932293781405 63.903441108656274 -5.642497427122424 3.57391226772083 64.66430896313989 -5.6424000842670905 3.573457816774014 64.66873030467606 -5.641239627662976 3.5738369892425537 64.66895426285211 5.958452864954937 -10.751485892268771 9.182685149319033 -27.3788826600762 18.673383623774967 -2.26225414367459 -26.67803957623059 8.539982337778834 2.896923402175078 18.18383798890771 -78.28713042523354 2.9372501840795344 148.62351134836572 80.27726415309998 141.27752792864365 8.047538706698841 -8.659503773099244 4.475694587631973 0.000018852738079321424 -5.709307337584157 0.000010896506884596957 -16.161760902553898 -83.35742595513996 -3.1800951628379908 -129.1088528844079 83.63918082027934 -126.83324364214288 -0.2557649723663847 -2.3324248474502456 -9.497576604287556 0.000024464262642534584 -7.901716716471379 -3.184852669112985e-7
